<svg id="Layer_1" data-name="Layer 1" xmlns="http://www.w3.org/2000/svg" viewBox="0 0 228.22 176.35"><defs><style>.cls-1{fill:none;stroke:#fff;stroke-miterlimit:10;}.cls-2{fill:#fff;}</style></defs><rect class="cls-1" x="37.13" y="55.93" width="123.21" height="36.32"/><rect class="cls-1" x="55.05" y="92.17" width="136.5" height="37.49"/><path class="cls-2" d="M53.57,77.58a3.81,3.81,0,0,1-2.17,2,4.86,4.86,0,0,1-1.66.27,4.34,4.34,0,0,1-1.38-.2,3.94,3.94,0,0,1-1.94-1.42,5.61,5.61,0,0,1-.59-1.08,6.14,6.14,0,0,1-.36-1.26,8.25,8.25,0,0,1-.12-1.42V72.84a8.74,8.74,0,0,1,.11-1.37,6.74,6.74,0,0,1,.35-1.23,4.82,4.82,0,0,1,.65-1.18,4.27,4.27,0,0,1,.9-.9,4.41,4.41,0,0,1,1.09-.53,4.13,4.13,0,0,1,1.3-.19,4.77,4.77,0,0,1,1.7.28,3.62,3.62,0,0,1,2.14,2.06,5.88,5.88,0,0,1,.4,1.64H52a4,4,0,0,0-.21-1,2.14,2.14,0,0,0-.42-.74,1.6,1.6,0,0,0-.67-.47,2.45,2.45,0,0,0-1-.16,2.15,2.15,0,0,0-.7.1,2,2,0,0,0-.56.31,2,2,0,0,0-.55.63,4.54,4.54,0,0,0-.36.86,5.74,5.74,0,0,0-.16.88,7.5,7.5,0,0,0-.06,1v1.67a8,8,0,0,0,.08,1.13,4.7,4.7,0,0,0,.22,1,2.81,2.81,0,0,0,.29.66,1.94,1.94,0,0,0,.43.51,1.71,1.71,0,0,0,.59.36,2.3,2.3,0,0,0,.77.12,2.55,2.55,0,0,0,.91-.15,1.86,1.86,0,0,0,.68-.44,2,2,0,0,0,.44-.71A3.38,3.38,0,0,0,52,76h2A4.77,4.77,0,0,1,53.57,77.58Z"/><path class="cls-2" d="M59.84,74.28v3.78h5.84V79.7H57.84V67.61h7.79v1.66H59.84v3.4h5v1.61Z"/><path class="cls-2" d="M77.58,78.06V79.7H69.81V67.61h2V78.06Z"/><path class="cls-2" d="M83.64,74.28v3.78h5.84V79.7H81.64V67.61h7.8v1.66h-5.8v3.4h5v1.61Z"/><path class="cls-2" d="M93.42,67.61h3.87a6.78,6.78,0,0,1,1.65.2,4.2,4.2,0,0,1,1.34.59,2.89,2.89,0,0,1,.88,1,3.18,3.18,0,0,1,.32,1.46,2.93,2.93,0,0,1-.18,1,2.36,2.36,0,0,1-.48.79,2.64,2.64,0,0,1-.51.43,3.21,3.21,0,0,1-.64.34v0a2.78,2.78,0,0,1,1.56,1,2.56,2.56,0,0,1,.4.81,3.12,3.12,0,0,1,.14.93,3.33,3.33,0,0,1-.31,1.52,3.13,3.13,0,0,1-.87,1.1,3.91,3.91,0,0,1-1.32.67,5.91,5.91,0,0,1-1.67.23H93.42Zm3.91,5.11a3.55,3.55,0,0,0,.9-.13,2.07,2.07,0,0,0,.69-.37A1.52,1.52,0,0,0,99.48,71a1.83,1.83,0,0,0-.14-.73,1.32,1.32,0,0,0-.38-.51,1.65,1.65,0,0,0-.71-.36,3.4,3.4,0,0,0-.94-.12H95.43v3.45Zm-1.9,5.34h2.19a2.63,2.63,0,0,0,.86-.14,2.05,2.05,0,0,0,.67-.36,1.66,1.66,0,0,0,.46-.59,1.86,1.86,0,0,0,.16-.79,2.55,2.55,0,0,0-.13-.81,1.62,1.62,0,0,0-.4-.6,1.85,1.85,0,0,0-.65-.39,2.56,2.56,0,0,0-.87-.14H95.43Z"/><path class="cls-2" d="M107.35,75V79.7h-2V67.61h3.84a6.21,6.21,0,0,1,1.72.25,4,4,0,0,1,1.37.68,3.29,3.29,0,0,1,.88,1.13,3.71,3.71,0,0,1,.31,1.58,3.63,3.63,0,0,1-.16,1.13,3.36,3.36,0,0,1-.45.91,3.67,3.67,0,0,1-.7.72,4.72,4.72,0,0,1-.91.53l2.59,5v.11h-2.14L109.4,75Zm1.87-1.63a2.84,2.84,0,0,0,1-.16,2,2,0,0,0,.73-.44,1.81,1.81,0,0,0,.41-.62,2.16,2.16,0,0,0,.15-.83,2.31,2.31,0,0,0-.16-.91,1.61,1.61,0,0,0-.48-.66,1.82,1.82,0,0,0-.7-.38,3.36,3.36,0,0,0-.93-.14h-1.85v4.14Z"/><path class="cls-2" d="M119.31,76.92l-.82,2.78h-2.07l3.93-12.09h1.77L126,79.7h-2.07l-.81-2.78Zm3.31-1.71-1.39-4.78-1.41,4.78Z"/><path class="cls-2" d="M134,69.27V79.7h-2V69.27h-3.7V67.61h9.42v1.66Z"/><path class="cls-2" d="M143.15,74.28v3.78H149V79.7h-7.84V67.61H149v1.66h-5.8v3.4h5v1.61Z"/><path class="cls-2" d="M84.44,110.09,86.93,105h2.45L87.28,117H85.46l.72-4.18,1-5.15-2.73,5.6h-1l-.66-5.64L81.94,113l-.7,4H79.41L81.51,105H83.9Z"/><path class="cls-2" d="M99.77,113.11a8.73,8.73,0,0,1-.51,1.26,6.14,6.14,0,0,1-.73,1.14,5.05,5.05,0,0,1-.94.91,4.35,4.35,0,0,1-1.16.58,4.2,4.2,0,0,1-1.4.2,3.34,3.34,0,0,1-1.27-.26,3,3,0,0,1-1-.64,3.66,3.66,0,0,1-.66-.92,5.11,5.11,0,0,1-.39-1.12,6.9,6.9,0,0,1-.16-1.22,7.43,7.43,0,0,1,.07-1.25l.25-1.59a10.45,10.45,0,0,1,.3-1.32,8.7,8.7,0,0,1,.5-1.26,6.61,6.61,0,0,1,.71-1.14,4.45,4.45,0,0,1,.93-.91,3.82,3.82,0,0,1,1.15-.6,4.1,4.1,0,0,1,1.39-.19,3.43,3.43,0,0,1,1.28.25,3.09,3.09,0,0,1,1,.64,3.49,3.49,0,0,1,.68.92,6,6,0,0,1,.41,1.12,7.12,7.12,0,0,1,.16,1.24,6.51,6.51,0,0,1-.06,1.25l-.25,1.58A8.84,8.84,0,0,1,99.77,113.11Zm-1.33-3.68q0-.41,0-.81a4.24,4.24,0,0,0-.13-.78,2.18,2.18,0,0,0-.29-.68,1.52,1.52,0,0,0-1.28-.7,2.06,2.06,0,0,0-.88.15,2.41,2.41,0,0,0-.68.44,3.86,3.86,0,0,0-.52.67,4.38,4.38,0,0,0-.37.79,6.4,6.4,0,0,0-.26.85c-.07.29-.12.56-.16.82l-.25,1.62a7.94,7.94,0,0,0-.09,1.53,7,7,0,0,0,.11.8,2.2,2.2,0,0,0,.27.68,1.62,1.62,0,0,0,.5.51,1.52,1.52,0,0,0,.77.21,2.16,2.16,0,0,0,1.57-.59,3.13,3.13,0,0,0,.53-.66,5.08,5.08,0,0,0,.4-.81,5.2,5.2,0,0,0,.26-.85c.07-.28.13-.56.17-.83l.25-1.62C98.4,109.94,98.42,109.69,98.44,109.43Z"/><path class="cls-2" d="M104.06,105h2.08l.93,8.45.07.61.23-.54L111,105h2.18L107.68,117h-1.9Z"/><path class="cls-2" d="M117.55,111.61l-.65,3.78h5.67l-.3,1.64h-7.62l2.1-12.08h7.57L124,106.6h-5.62l-.59,3.4h4.85l-.28,1.61Z"/><path class="cls-2" d="M131.15,110.09l2.49-5.14h2.45L134,117h-1.82l.72-4.18,1-5.15-2.73,5.6h-1l-.66-5.64-.83,5.35-.7,4h-1.83l2.1-12.08h2.39Z"/><path class="cls-2" d="M140.91,111.61l-.66,3.78h5.67l-.29,1.64H138l2.1-12.08h7.57l-.28,1.65h-5.62l-.59,3.4H146l-.29,1.61Z"/><path class="cls-2" d="M155.26,117l-2.38-8.39L151.41,117h-2L151.54,105h1.92l2.37,8.36,1.48-8.36h2L157.17,117Z"/><path class="cls-2" d="M167.79,106.6,166,117H164l1.81-10.43h-3.6l.29-1.65h9.16l-.3,1.65Z"/><path class="cls-2" d="M179.53,113.06a1.78,1.78,0,0,0-.45-.57,2.94,2.94,0,0,0-.67-.39l-.74-.3a9.31,9.31,0,0,1-1.23-.53,4.11,4.11,0,0,1-1.07-.75,3,3,0,0,1-.75-1,2.75,2.75,0,0,1-.22-1.34,3,3,0,0,1,.45-1.47,3.88,3.88,0,0,1,1-1.07,4.38,4.38,0,0,1,1.38-.65,5,5,0,0,1,1.53-.2,4.19,4.19,0,0,1,1.48.29,3.36,3.36,0,0,1,1.17.75,3.51,3.51,0,0,1,.75,1.16,3.59,3.59,0,0,1,.24,1.49H180.5a2.65,2.65,0,0,0-.11-.81,1.87,1.87,0,0,0-.34-.64,1.79,1.79,0,0,0-.58-.43,2.21,2.21,0,0,0-.82-.17,2.69,2.69,0,0,0-.79.11,2.36,2.36,0,0,0-.72.33,2.22,2.22,0,0,0-.54.56,1.58,1.58,0,0,0-.27.76,1.19,1.19,0,0,0,.14.76,1.64,1.64,0,0,0,.52.53,3.29,3.29,0,0,0,.69.38l.72.27a8.41,8.41,0,0,1,1.23.55,4.63,4.63,0,0,1,1.05.78,3.27,3.27,0,0,1,.7,1,2.83,2.83,0,0,1,.2,1.35,2.9,2.9,0,0,1-.46,1.47,3.61,3.61,0,0,1-1,1,4.13,4.13,0,0,1-1.39.65,6.06,6.06,0,0,1-1.57.18,4.75,4.75,0,0,1-1.57-.28,3.9,3.9,0,0,1-1.27-.77,3.3,3.3,0,0,1-.84-1.19,3.79,3.79,0,0,1-.28-1.57h1.94a2.54,2.54,0,0,0,.14.9,1.93,1.93,0,0,0,.41.68,1.78,1.78,0,0,0,.66.44,2.94,2.94,0,0,0,1.72.06,2.09,2.09,0,0,0,.73-.32,1.74,1.74,0,0,0,.55-.53,1.58,1.58,0,0,0,.28-.76A1.47,1.47,0,0,0,179.53,113.06Z"/><polygon class="cls-2" points="79.69 117.01 68.31 117.01 80.5 115.26 79.69 117.01"/><polygon class="cls-2" points="79.96 114.37 73.05 114.37 80.45 113.16 79.96 114.37"/></svg>